<?xml version="1.0" encoding="UTF-8"?>
<svg id="_Слой_4" data-name="Слой 4" xmlns="http://www.w3.org/2000/svg" viewBox="0 0 1081.29 1080">
  <defs>
    <style>
      .cls-1 {
        fill: #757575;
      }
    </style>
  </defs>
  <path class="cls-1" d="M541.38,72.17c63.2,0,124.47,12.36,182.11,36.74,55.71,23.56,105.76,57.31,148.75,100.31,43,43,76.74,93.04,100.31,148.75,24.38,57.64,36.74,118.91,36.74,182.11s-12.36,124.47-36.74,182.11c-23.56,55.71-57.31,105.76-100.31,148.75-43,43-93.04,76.74-148.75,100.31-57.64,24.38-118.91,36.74-182.11,36.74s-124.47-12.36-182.11-36.74c-55.71-23.56-105.76-57.31-148.75-100.31-43-43-76.74-93.04-100.31-148.75-24.38-57.64-36.74-118.91-36.74-182.11s12.36-124.47,36.74-182.11c23.56-55.71,57.31-105.76,100.31-148.75,43-43,93.04-76.74,148.75-100.31,57.64-24.38,118.91-36.74,182.11-36.74M541.38.17C243.19.17,1.47,241.9,1.47,540.09s241.73,539.91,539.91,539.91,539.91-241.73,539.91-539.91S839.57.17,541.38.17h0Z"/>
  <path class="cls-1" d="M914.6,257.87c28.09,38.21,50.13,80.23,65.63,125.18,17.37,50.41,26.1,103.17,25.95,156.83-.16,53.69-9.21,106.55-26.9,157.12-15.86,45.34-38.32,87.75-66.88,126.34l-281.64-281.64,283.84-283.84M916.5,176.09c-13.5,0-27.07,5.13-37.51,15.58l-325.77,325.77c-13.41,13.41-13.47,35.08-.14,48.41l323.86,323.86c10.3,10.3,23.71,15.36,37.11,15.36,15.44,0,30.87-6.72,41.49-19.85,162.76-201.11,163.6-489.36,2.02-689.52-10.48-12.98-25.73-19.6-41.06-19.6h0Z"/>
</svg>