<?xml version="1.0" encoding="UTF-8"?>
<svg xmlns="http://www.w3.org/2000/svg" viewBox="0 0 1081.29 1080">
  <defs>
    <style>
      .cls-1 {
        fill: #757575;
      }
    </style>
  </defs>
  <g id="_Слой_4" data-name="Слой 4">
    <path class="cls-1" d="M541.38,72.17c63.2,0,124.47,12.36,182.11,36.74,55.71,23.56,105.76,57.31,148.75,100.31,43,43,76.74,93.04,100.31,148.75,24.38,57.64,36.74,118.91,36.74,182.11s-12.36,124.47-36.74,182.11c-23.56,55.71-57.31,105.76-100.31,148.75-43,43-93.04,76.74-148.75,100.31-57.64,24.38-118.91,36.74-182.11,36.74s-124.47-12.36-182.11-36.74c-55.71-23.56-105.76-57.31-148.75-100.31-43-43-76.74-93.04-100.31-148.75-24.38-57.64-36.74-118.91-36.74-182.11s12.36-124.47,36.74-182.11c23.56-55.71,57.31-105.76,100.31-148.75,43-43,93.04-76.74,148.75-100.31,57.64-24.38,118.91-36.74,182.11-36.74M541.38.17C243.19.17,1.47,241.9,1.47,540.09s241.73,539.91,539.91,539.91,539.91-241.73,539.91-539.91S839.57.17,541.38.17h0Z"/>
  </g>
  <g id="_Слой_7" data-name="Слой 7">
    <g>
      <path class="cls-1" d="M551.14,232.92l303.98,153.68c15.99,8.08,15.97,30.92-.03,38.98l-303.98,153.16c-6.17,3.11-13.46,3.11-19.63,0l-304.56-153.16c-16.02-8.06-16.04-30.92-.03-39l304.56-153.68c6.19-3.12,13.5-3.12,19.69,0Z"/>
      <path class="cls-1" d="M530.02,605.23l-230.61-115.97c-7.99-4.02-17.42,1.79-17.42,10.74v273.82c0,28.7,23.26,51.96,51.96,51.96h414.02c28.7,0,51.96-23.26,51.96-51.96v-273.67c0-8.95-9.43-14.76-17.42-10.73l-229.84,115.8c-7.12,3.59-15.52,3.59-22.64,0Z"/>
      <rect class="cls-1" x="833.33" y="395.35" width="33.77" height="239.59" rx="16.88" ry="16.88"/>
    </g>
  </g>
</svg>