<?xml version="1.0" encoding="UTF-8"?>
<svg id="_Слой_3" data-name="Слой 3" xmlns="http://www.w3.org/2000/svg" viewBox="0 0 1080 1080">
  <defs>
    <style>
      .cls-1 {
        fill: #757575;
      }

      .cls-2 {
        fill: none;
        stroke: #757575;
        stroke-linecap: round;
        stroke-linejoin: round;
        stroke-width: 60px;
      }
    </style>
  </defs>
  <path class="cls-1" d="M540,73c63.08,0,124.23,12.34,181.76,36.67,55.6,23.52,105.55,57.2,148.46,100.11,42.91,42.91,76.59,92.86,100.11,148.46,24.33,57.53,36.67,118.68,36.67,181.76s-12.34,124.23-36.67,181.76c-23.52,55.6-57.2,105.55-100.11,148.46-42.91,42.91-92.86,76.59-148.46,100.11-57.53,24.33-118.68,36.67-181.76,36.67s-124.23-12.34-181.76-36.67c-55.6-23.52-105.55-57.2-148.46-100.11-42.91-42.91-76.59-92.86-100.11-148.46-24.33-57.53-36.67-118.68-36.67-181.76s12.34-124.23,36.67-181.76c23.52-55.6,57.2-105.55,100.11-148.46,42.91-42.91,92.86-76.59,148.46-100.11,57.53-24.33,118.68-36.67,181.76-36.67M540,0C241.77,0,0,241.77,0,540s241.77,540,540,540,540-241.77,540-540S838.23,0,540,0h0Z"/>
  <path class="cls-1" d="M303.16,805.35v-207.54c0-10.85,4.28-21.27,11.92-28.98l213.97-216.19c10.2-10.3,26.84-10.32,37.05-.03,81.56,82.33,185.73,191.88,219.81,227.83,7.31,7.71,11.35,17.92,11.29,28.55-.3,52.52-1.75,152.43-2.42,196.71-.18,12.25-10.17,22.08-22.42,22.08h-141.88c-12.29,0-22.29-9.86-22.42-22.15-.3-27.42-.79-74.86-.95-110.51-.06-12.15-9.78-22.03-21.93-22.3l-69.23-1.54c-12.55-.28-22.87,9.75-22.92,22.31-.17,37.27-.65,84.71-.95,112.05-.14,12.29-10.14,22.15-22.42,22.15h-144.07c-12.39,0-22.43-10.04-22.43-22.43Z"/>
  <path class="cls-2" d="M232.96,539.38c0,3.98,193.52-188.69,276.72-271.71,20.63-20.59,54.02-20.59,74.68-.02l262.69,261.63"/>
</svg>