<?xml version="1.0" encoding="UTF-8"?>
<svg id="_Слой_2" data-name="Слой 2" xmlns="http://www.w3.org/2000/svg" viewBox="0 0 1081.46 1080">
  <defs>
    <style>
      .cls-1 {
        fill: #fff;
      }
    </style>
  </defs>
  <path class="cls-1" d="M116.08,694.04c-10.22,10.22-17.74,22.79-21.94,36.62L1.52,1035.82c-7.84,25.84,15.94,50.15,41.94,42.87l309.66-86.61c14.55-4.07,27.81-11.82,38.49-22.51L932.02,429.17l-276.04-276.04C487.15,322.38,246.32,563.76,116.08,694.04Z"/>
  <path class="cls-1" d="M1056.99,304.2c32.26-32.26,32.68-84.44.94-117.2-53.81-55.52-100.86-106.17-154.51-161.57-32.49-33.56-86.2-33.96-119.19-.89-15.57,15.62-33.76,33.85-54.02,54.17l276.14,276.14,50.64-50.64Z"/>
</svg>