<?xml version="1.0" encoding="UTF-8"?>
<svg id="_Слой_11" data-name="Слой 11" xmlns="http://www.w3.org/2000/svg" viewBox="0 0 1081.99 1080.48">
  <defs>
    <style>
      .cls-1 {
        fill: #00a6ff;
      }
    </style>
  </defs>
  <path class="cls-1" d="M540.7.65C242.51.65.78,242.38.78,540.57s241.73,539.91,539.91,539.91,539.91-241.73,539.91-539.91S838.88.65,540.7.65ZM799.63,779.64c0,28.7-23.26,51.96-51.96,51.96h-414.02c-28.7,0-51.96-23.26-51.96-51.96v-273.82c0-8.95,9.42-14.76,17.42-10.74l230.61,115.97c7.12,3.58,15.52,3.58,22.64,0l229.84-115.8c7.99-4.03,17.42,1.78,17.42,10.73v273.67ZM866.8,418.06v205.83c0,9.32-7.56,16.88-16.88,16.88h0c-9.32,0-16.88-7.56-16.88-16.88v-181.51l-282.22,142.19c-6.17,3.11-13.46,3.11-19.63,0l-304.56-153.16c-16.02-8.06-16.04-30.92-.03-39l304.56-153.68c6.19-3.12,13.5-3.12,19.69,0l303.98,153.68c9.14,4.62,13.04,14.05,11.73,22.8.16.92.26,1.87.26,2.83Z"/>
</svg>