<?xml version="1.0" encoding="UTF-8"?>
<svg xmlns="http://www.w3.org/2000/svg" viewBox="0 0 1081.29 1080">
  <defs>
    <style>
      .cls-1, .cls-2 {
        fill: #757575;
      }

      .cls-2 {
        font-family: KanitCyrillicRegular, 'Kanit Cyrillic';
        font-size: 813.75px;
        stroke: #757575;
        stroke-linecap: round;
        stroke-linejoin: round;
        stroke-width: 27px;
      }
    </style>
  </defs>
  <g id="_Слой_4" data-name="Слой 4">
    <path class="cls-1" d="M541.38,72.17c63.2,0,124.47,12.36,182.11,36.74,55.71,23.56,105.76,57.31,148.75,100.31,43,43,76.74,93.04,100.31,148.75,24.38,57.64,36.74,118.91,36.74,182.11s-12.36,124.47-36.74,182.11c-23.56,55.71-57.31,105.76-100.31,148.75-43,43-93.04,76.74-148.75,100.31-57.64,24.38-118.91,36.74-182.11,36.74s-124.47-12.36-182.11-36.74c-55.71-23.56-105.76-57.31-148.75-100.31-43-43-76.74-93.04-100.31-148.75-24.38-57.64-36.74-118.91-36.74-182.11s12.36-124.47,36.74-182.11c23.56-55.71,57.31-105.76,100.31-148.75,43-43,93.04-76.74,148.75-100.31,57.64-24.38,118.91-36.74,182.11-36.74M541.38.17C243.19.17,1.47,241.9,1.47,540.09s241.73,539.91,539.91,539.91,539.91-241.73,539.91-539.91S839.57.17,541.38.17h0Z"/>
  </g>
  <g id="_Слой_6" data-name="Слой 6">
    <text class="cls-2" transform="translate(331.69 829.2)"><tspan x="0" y="0">?</tspan></text>
  </g>
</svg>