<?xml version="1.0" encoding="UTF-8"?>
<svg id="_Слой_9" data-name="Слой 9" xmlns="http://www.w3.org/2000/svg" viewBox="0 0 1081.99 1080.36">
  <defs>
    <style>
      .cls-1 {
        fill: #00a6ff;
      }
    </style>
  </defs>
  <path class="cls-1" d="M541.09.53C242.9.53,1.17,242.25,1.17,540.44s241.73,539.91,539.91,539.91,539.91-241.73,539.91-539.91S839.28.53,541.09.53ZM589.78,828.17c0,6.92-5.61,12.52-12.52,12.52h-104.09c-6.92,0-12.52-5.61-12.52-12.52v-75.52c0-6.92,5.61-12.52,12.52-12.52h104.09c6.92,0,12.52,5.61,12.52,12.52v75.52ZM733.41,489.46c-15.46,20.34-31.21,41.37-57.25,63.07-17.9,15.19-32.02,27.13-42.32,35.81-11.94,10.86-26.4,22.81-34.07,34.18-14.94,22.14-11.17,40.13-11.17,58.57,0,8.09-6.56,14.65-14.65,14.65h-94.73c-8.09,0-14.65-6.56-14.65-14.65v-4.07c0-23.87,3.01-57.35,13.05-74.44,10.03-17.09,18.51-32.41,33.43-45.98,14.92-13.55,29.97-26.57,45.16-39.06,18.98-15.18,36.99-30.38,50.01-45.57,13.02-15.18,23.59-29.91,23.59-51.61,0-30.92-1.14-40.08-18.32-57.04-14.67-14.49-47.33-19.94-93.43-19.94-24.96,0-49.92,2.99-74.87,8.95-18.46,4.92-41.24,14.33-59.94,21.89-7.73,3.12-16.16-2.55-16.16-10.89l-.9-81.24c-.06-5.84,3.35-11.15,8.68-13.54,21-9.41,52.49-19.87,77.46-24.81,28.75-5.7,59.12-8.54,91.14-8.54,65.1,0,118.79,14.55,151.88,42.72,44.71,38.05,58.23,81.23,58.23,132.21,0,32.55-4.73,59-20.19,79.34Z"/>
</svg>