<?xml version="1.0" encoding="UTF-8"?>
<svg id="_Слой_8" xmlns="http://www.w3.org/2000/svg" version="1.1" viewBox="0 0 1081.82 1080">
  <!-- Generator: Adobe Illustrator 29.4.0, SVG Export Plug-In . SVG Version: 2.1.0 Build 152)  -->
  <defs>
    <style>
      .st0, .st1 {
        fill: none;
      }

      .st1 {
        display: none;
        stroke: #fff;
        stroke-linecap: round;
        stroke-linejoin: round;
        stroke-width: 60px;
      }

      .st2 {
        fill: #00a6ff;
      }
    </style>
  </defs>
  <path class="st1" d="M233.48,539.38c0,3.98,193.52-188.69,276.72-271.71,20.63-20.59,54.02-20.59,74.68-.02l262.69,261.63"/>
  <g>
    <path class="st0" d="M567.03,353.6c-10.21-10.29-26.85-10.27-37.05.03l-213.97,216.19c-7.64,7.71-11.92,18.13-11.92,28.98v207.54c0,12.39,10.04,22.43,22.43,22.43h144.07c12.28,0,22.28-9.86,22.42-22.15.3-27.34.78-74.78.95-112.05.05-12.56,10.37-22.59,22.92-22.31l69.23,1.54c12.15.27,21.87,10.15,21.93,22.3.16,35.65.65,83.09.95,110.51.13,12.29,10.13,22.15,22.42,22.15h141.88c12.25,0,22.24-9.83,22.42-22.08h0c.67-44.27,2.12-144.18,2.42-196.7.06-10.63-3.98-20.84-11.29-28.55-34.08-35.95-138.25-145.5-219.81-227.83Z"/>
    <path class="st2" d="M540.3,1.07C242.12,1.07.39,242.79.39,540.98s241.73,539.91,539.91,539.91,539.91-241.73,539.91-539.91S838.49,1.07,540.3,1.07ZM795.71,806.69h0c-.18,12.24-10.17,22.07-22.42,22.07h-141.88c-12.29,0-22.29-9.86-22.42-22.15-.3-27.42-.79-74.86-.95-110.51-.06-12.15-9.78-22.03-21.93-22.3l-69.23-1.54c-12.55-.28-22.87,9.75-22.92,22.31-.17,37.27-.65,84.71-.95,112.05-.14,12.29-10.14,22.15-22.42,22.15h-144.07c-12.39,0-22.43-10.04-22.43-22.43v-207.54c0-10.85,4.28-21.27,11.92-28.98l213.97-216.19c10.2-10.3,26.84-10.32,37.05-.03,81.56,82.33,185.73,191.88,219.81,227.83,7.31,7.71,11.35,17.92,11.29,28.55-.3,52.52-1.75,152.43-2.42,196.71ZM868.74,551.05h0c-11.63,11.63-30.49,11.63-42.13,0l-261.17-261.17c-10.1-10.1-26.48-10.1-36.58,0l-272.45,272.45c-11.63,11.63-30.49,11.63-42.13,0h0c-11.63-11.63-11.63-30.49,0-42.13L487.77,246.71c32.79-32.79,85.96-32.79,118.75,0l262.21,262.21c11.63,11.63,11.63,30.49,0,42.13Z"/>
  </g>
</svg>