<?xml version="1.0" encoding="UTF-8"?>
<svg id="_Слой_4" data-name="Слой 4" xmlns="http://www.w3.org/2000/svg" viewBox="0 0 1081.29 1080">
  <defs>
    <style>
      .cls-1 {
        fill: #757575;
      }
    </style>
  </defs>
  <path class="cls-1" d="M541.38,72.17c63.2,0,124.47,12.36,182.11,36.74,55.71,23.56,105.76,57.31,148.75,100.31,43,43,76.74,93.04,100.31,148.75,24.38,57.64,36.74,118.91,36.74,182.11s-12.36,124.47-36.74,182.11c-23.56,55.71-57.31,105.76-100.31,148.75-43,43-93.04,76.74-148.75,100.31-57.64,24.38-118.91,36.74-182.11,36.74s-124.47-12.36-182.11-36.74c-55.71-23.56-105.76-57.31-148.75-100.31-43-43-76.74-93.04-100.31-148.75-24.38-57.64-36.74-118.91-36.74-182.11s12.36-124.47,36.74-182.11c23.56-55.71,57.31-105.76,100.31-148.75,43-43,93.04-76.74,148.75-100.31,57.64-24.38,118.91-36.74,182.11-36.74M541.38.17C243.19.17,1.47,241.9,1.47,540.09s241.73,539.91,539.91,539.91,539.91-241.73,539.91-539.91S839.57.17,541.38.17h0Z"/>
  <path class="cls-1" d="M461.11,834.48h-87.29c-3.1,0-5.62-2.52-5.62-5.62v-70.59c0-3.1-2.52-5.62-5.62-5.62h-42.2c-3.1,0-5.62-2.52-5.62-5.62v-67.25c0-3.1,2.52-5.62,5.62-5.62h42.2c3.1,0,5.62-2.52,5.62-5.62v-44.71c0-3.1-2.52-5.62-5.62-5.62h-42.2c-3.1,0-5.62-2.52-5.62-5.62v-67.25c0-3.1,2.52-5.62,5.62-5.62h42.2c3.1,0,5.62-2.52,5.62-5.62V255.61c0-3.1,2.52-5.62,5.62-5.62h247.38c67.35,0,116.9,16.57,148.63,49.68,31.73,33.12,47.59,78.07,47.59,134.85s-18.37,103.68-55.11,135.68c-36.74,32.02-85.73,48.01-146.96,48.01h-143.01c-3.1,0-5.62,2.52-5.62,5.62v44.71c0,3.1,2.52,5.62,5.62,5.62h103.16c3.1,0,5.62,2.52,5.62,5.62v67.25c0,3.1-2.52,5.62-5.62,5.62h-103.16c-3.1,0-5.62,2.52-5.62,5.62v70.59c0,3.1-2.52,5.62-5.62,5.62ZM465.89,333.27v200.85c0,3.1,2.52,5.62,5.62,5.62h127.98c39.52,0,69.3-8.06,89.34-24.21,20.04-16.14,30.06-41.75,30.06-76.82,0-74.03-38.13-111.05-114.39-111.05h-132.99c-3.1,0-5.62,2.52-5.62,5.62Z"/>
</svg>